<svg xmlns="http://www.w3.org/2000/svg" viewBox="0 0 100 100" preserveAspectRatio="xMidYMid" width="200" height="200" style="shape-rendering: auto; display: block; background: transparent;" xmlns:xlink="http://www.w3.org/1999/xlink"><g><g transform="rotate(0 50 50)">
  <rect x="46" y="21" rx="4" ry="4" width="8" height="8" fill="#6e6667">
    <animate attributeName="opacity" values="1;0" keyTimes="0;1" dur="1.1494252873563218s" begin="-1.0727969348659003s" repeatCount="indefinite"></animate>
  </rect>
</g><g transform="rotate(24 50 50)">
  <rect x="46" y="21" rx="4" ry="4" width="8" height="8" fill="#6e6667">
    <animate attributeName="opacity" values="1;0" keyTimes="0;1" dur="1.1494252873563218s" begin="-0.9961685823754789s" repeatCount="indefinite"></animate>
  </rect>
</g><g transform="rotate(48 50 50)">
  <rect x="46" y="21" rx="4" ry="4" width="8" height="8" fill="#6e6667">
    <animate attributeName="opacity" values="1;0" keyTimes="0;1" dur="1.1494252873563218s" begin="-0.9195402298850575s" repeatCount="indefinite"></animate>
  </rect>
</g><g transform="rotate(72 50 50)">
  <rect x="46" y="21" rx="4" ry="4" width="8" height="8" fill="#6e6667">
    <animate attributeName="opacity" values="1;0" keyTimes="0;1" dur="1.1494252873563218s" begin="-0.842911877394636s" repeatCount="indefinite"></animate>
  </rect>
</g><g transform="rotate(96 50 50)">
  <rect x="46" y="21" rx="4" ry="4" width="8" height="8" fill="#6e6667">
    <animate attributeName="opacity" values="1;0" keyTimes="0;1" dur="1.1494252873563218s" begin="-0.7662835249042145s" repeatCount="indefinite"></animate>
  </rect>
</g><g transform="rotate(120 50 50)">
  <rect x="46" y="21" rx="4" ry="4" width="8" height="8" fill="#6e6667">
    <animate attributeName="opacity" values="1;0" keyTimes="0;1" dur="1.1494252873563218s" begin="-0.689655172413793s" repeatCount="indefinite"></animate>
  </rect>
</g><g transform="rotate(144 50 50)">
  <rect x="46" y="21" rx="4" ry="4" width="8" height="8" fill="#6e6667">
    <animate attributeName="opacity" values="1;0" keyTimes="0;1" dur="1.1494252873563218s" begin="-0.6130268199233716s" repeatCount="indefinite"></animate>
  </rect>
</g><g transform="rotate(168 50 50)">
  <rect x="46" y="21" rx="4" ry="4" width="8" height="8" fill="#6e6667">
    <animate attributeName="opacity" values="1;0" keyTimes="0;1" dur="1.1494252873563218s" begin="-0.5363984674329502s" repeatCount="indefinite"></animate>
  </rect>
</g><g transform="rotate(192 50 50)">
  <rect x="46" y="21" rx="4" ry="4" width="8" height="8" fill="#6e6667">
    <animate attributeName="opacity" values="1;0" keyTimes="0;1" dur="1.1494252873563218s" begin="-0.45977011494252873s" repeatCount="indefinite"></animate>
  </rect>
</g><g transform="rotate(216 50 50)">
  <rect x="46" y="21" rx="4" ry="4" width="8" height="8" fill="#6e6667">
    <animate attributeName="opacity" values="1;0" keyTimes="0;1" dur="1.1494252873563218s" begin="-0.38314176245210724s" repeatCount="indefinite"></animate>
  </rect>
</g><g transform="rotate(240 50 50)">
  <rect x="46" y="21" rx="4" ry="4" width="8" height="8" fill="#6e6667">
    <animate attributeName="opacity" values="1;0" keyTimes="0;1" dur="1.1494252873563218s" begin="-0.3065134099616858s" repeatCount="indefinite"></animate>
  </rect>
</g><g transform="rotate(264 50 50)">
  <rect x="46" y="21" rx="4" ry="4" width="8" height="8" fill="#6e6667">
    <animate attributeName="opacity" values="1;0" keyTimes="0;1" dur="1.1494252873563218s" begin="-0.22988505747126436s" repeatCount="indefinite"></animate>
  </rect>
</g><g transform="rotate(288 50 50)">
  <rect x="46" y="21" rx="4" ry="4" width="8" height="8" fill="#6e6667">
    <animate attributeName="opacity" values="1;0" keyTimes="0;1" dur="1.1494252873563218s" begin="-0.1532567049808429s" repeatCount="indefinite"></animate>
  </rect>
</g><g transform="rotate(312 50 50)">
  <rect x="46" y="21" rx="4" ry="4" width="8" height="8" fill="#6e6667">
    <animate attributeName="opacity" values="1;0" keyTimes="0;1" dur="1.1494252873563218s" begin="-0.07662835249042145s" repeatCount="indefinite"></animate>
  </rect>
</g><g transform="rotate(336 50 50)">
  <rect x="46" y="21" rx="4" ry="4" width="8" height="8" fill="#6e6667">
    <animate attributeName="opacity" values="1;0" keyTimes="0;1" dur="1.1494252873563218s" begin="0s" repeatCount="indefinite"></animate>
  </rect>
</g><g></g></g><!-- [ldio] generated by https://loading.io --></svg>